<svg width="56" height="56" viewBox="0 0 56 56" fill="none" xmlns="http://www.w3.org/2000/svg">
<path d="M49.2333 25.7833L30.2166 6.76659C29.6333 6.18325 28.8166 5.83325 28 5.83325C27.1833 5.83325 26.3666 6.18325 25.7833 6.76659L21.7 10.8499L26.4833 15.6333C26.95 15.3999 27.4166 15.2833 28 15.2833C29.9833 15.2833 31.5 16.7999 31.5 18.7833C31.5 19.3666 31.3833 19.8333 31.15 20.2999L35.8166 24.9666C36.2833 24.7333 36.75 24.6166 37.3333 24.6166C39.3167 24.6166 40.8333 26.1333 40.8333 28.1166C40.8333 30.0999 39.3167 31.6166 37.3333 31.6166C35.35 31.6166 33.8333 30.0999 33.8333 28.1166C33.8333 27.5333 33.95 27.0666 34.1833 26.5999L29.5166 21.9333C29.4 21.9333 29.2833 22.0499 29.1666 22.0499V34.1833C30.5666 34.6499 31.5 35.9333 31.5 37.4499C31.5 39.4333 29.9833 40.9499 28 40.9499C26.0166 40.9499 24.5 39.4333 24.5 37.4499C24.5 35.9333 25.4333 34.6499 26.8333 34.1833V21.9333C25.4333 21.4666 24.5 20.1833 24.5 18.6666C24.5 18.0833 24.6166 17.6166 24.85 17.1499L20.0666 12.3666L6.76665 25.7833C6.18331 26.3666 5.83331 27.1833 5.83331 27.9999C5.83331 28.8166 6.18331 29.6333 6.76665 30.2166L25.7833 49.2333C26.3666 49.8166 27.1833 50.1666 28 50.1666C28.8166 50.1666 29.6333 49.8166 30.2166 49.2333L49.2333 30.2166C49.8167 29.6333 50.1666 28.8166 50.1666 27.9999C50.1666 27.1833 49.8167 26.3666 49.2333 25.7833Z" fill="black"/>
</svg>
